<svg width="137" height="59" viewBox="0 0 137 59" fill="none" xmlns="http://www.w3.org/2000/svg">
<path d="M28.1726 36.7207C26.9832 36.7207 25.9416 36.4022 25.0476 35.7653C24.1537 35.1197 23.4579 34.1557 22.9604 32.8732C22.4707 31.5908 22.2258 29.9812 22.2258 28.0446C22.2258 25.9961 22.5562 24.223 23.2169 22.7254C23.8777 21.2191 24.7639 20.0571 25.8755 19.2394C26.9871 18.4131 28.2192 18 29.5718 18C30.2015 18 30.7768 18.099 31.2976 18.2969C31.8184 18.4863 32.2304 18.8048 32.5336 19.2523C32.8445 19.6913 33 20.2809 33 21.0211C33 21.7786 32.8562 22.4284 32.5686 22.9707C32.2809 23.5129 31.8728 23.784 31.3442 23.784C31.2276 23.784 31.1188 23.784 31.0177 23.784C30.9245 23.7754 30.8234 23.7582 30.7146 23.7324C30.9245 22.6909 31.0527 21.912 31.0994 21.3955C31.146 20.8791 31.1227 20.5305 31.0294 20.3498C30.9439 20.169 30.8156 20.0657 30.6446 20.0399C30.4736 20.0141 30.3142 20.0786 30.1665 20.2336C30.0266 20.3885 29.8983 20.7242 29.7817 21.2406C29.6651 21.7484 29.5641 22.5188 29.4786 23.5516C29.3075 23.5258 29.0899 23.5 28.8256 23.4742C28.5691 23.4484 28.3514 23.4397 28.1726 23.4484C28.2037 22.6135 28.1998 21.9894 28.1609 21.5763C28.1298 21.1631 28.0599 20.892 27.9511 20.7629C27.8422 20.6338 27.6906 20.5736 27.4963 20.5822C27.3253 20.5908 27.1815 20.6682 27.0649 20.8146C26.9483 20.9523 26.8666 21.2277 26.82 21.6408C26.7811 22.0454 26.7811 22.6479 26.82 23.4484C26.4002 23.5603 25.9999 23.8228 25.619 24.2359C25.2458 24.6405 24.9388 25.187 24.6978 25.8756C24.4646 26.5556 24.348 27.3646 24.348 28.3028C24.348 29.6541 24.5268 30.8075 24.8844 31.7629C25.242 32.7183 25.7161 33.4499 26.3069 33.9577C26.8977 34.457 27.5429 34.7066 28.2426 34.7066C28.3203 34.7066 28.3941 34.7066 28.4641 34.7066C28.5418 34.698 28.6157 34.6894 28.6857 34.6808C28.7634 34.6635 28.8372 34.6506 28.9072 34.642C28.9849 34.6248 29.0588 34.6076 29.1288 34.5904C29.2376 34.5646 29.3464 34.5301 29.4552 34.4871C29.5718 34.4441 29.6846 34.401 29.7934 34.358C29.8556 34.3236 29.9178 34.2934 29.98 34.2676C30.0421 34.2332 30.1005 34.1987 30.1549 34.1643C30.2015 34.1385 30.2443 34.1084 30.2831 34.0739C30.3298 34.0395 30.3725 34.0094 30.4114 33.9836C30.458 33.9577 30.5008 33.9319 30.5397 33.9061C30.5708 33.8631 30.6057 33.8329 30.6446 33.8157C30.6835 33.7899 30.7185 33.7598 30.7495 33.7254C30.7884 33.6823 30.8351 33.635 30.8895 33.5833C31.1693 33.2735 31.4025 33.0454 31.5891 32.8991C31.7834 32.7527 31.9894 32.6796 32.2071 32.6796C32.4092 32.6796 32.5686 32.7613 32.6852 32.9249C32.8095 33.0884 32.8717 33.2864 32.8717 33.5188C32.8717 33.9491 32.7435 34.358 32.4869 34.7453C32.2304 35.124 31.8806 35.464 31.4375 35.7653C30.9944 36.0579 30.4891 36.2903 29.9217 36.4624C29.362 36.6346 28.7789 36.7207 28.1726 36.7207ZM26.7967 19.6009C26.82 19.6354 26.8472 19.6827 26.8783 19.743C26.9172 19.8032 26.9521 19.8678 26.9832 19.9366C27.0454 20.0829 27.0066 20.2508 26.8666 20.4401C26.7267 20.6209 26.5557 20.7801 26.3536 20.9178C26.1592 21.0469 25.9999 21.1115 25.8755 21.1115C25.8366 21.1115 25.7978 21.1115 25.7589 21.1115C25.72 21.1029 25.6851 21.0814 25.654 21.0469C25.6306 21.0211 25.5957 20.9824 25.549 20.9308C25.5024 20.8705 25.4674 20.8232 25.4441 20.7887C25.3041 20.5649 25.2614 20.3455 25.3158 20.1303C25.3702 19.9151 25.4907 19.7387 25.6773 19.6009C25.8638 19.4546 26.066 19.3815 26.2836 19.3815C26.3924 19.3815 26.4896 19.403 26.5751 19.446C26.6684 19.4804 26.7423 19.5321 26.7967 19.6009ZM22.0276 30.9883C22.4551 30.7731 22.9837 30.5235 23.6134 30.2394C24.2431 29.9554 24.8883 29.6843 25.549 29.4261C25.8133 29.3142 26.0426 29.2883 26.237 29.3486C26.4313 29.4088 26.5712 29.538 26.6568 29.7359C26.7734 29.9597 26.7889 30.1835 26.7034 30.4073C26.6257 30.6225 26.4508 30.8161 26.1787 30.9883C25.5646 31.3498 24.9466 31.7027 24.3247 32.0469C23.7106 32.3912 23.1547 32.6839 22.6572 32.9249C22.253 33.1315 21.9149 33.2132 21.6428 33.1702C21.3785 33.1185 21.188 32.9335 21.0714 32.615C20.9626 32.3052 20.9781 32.0125 21.1181 31.7371C21.2658 31.4617 21.5689 31.2121 22.0276 30.9883ZM28.6857 30.007C28.3592 30.007 28.0949 29.8908 27.8928 29.6585C27.6906 29.4261 27.5896 29.0775 27.5896 28.6127C27.5896 28.2254 27.7023 27.9069 27.9277 27.6573C28.1532 27.3991 28.4913 27.27 28.9422 27.27C29.292 27.27 29.5641 27.3862 29.7584 27.6185C29.9605 27.8423 30.0616 28.1479 30.0616 28.5352C30.0616 29.0516 29.9528 29.4261 29.7351 29.6585C29.5252 29.8908 29.1754 30.007 28.6857 30.007ZM31.2043 34.2934C31.2509 34.3537 31.2937 34.4268 31.3326 34.5129C31.3792 34.5904 31.4142 34.6635 31.4375 34.7324C31.5463 34.9906 31.4958 35.2101 31.2859 35.3908C31.0838 35.5716 30.87 35.662 30.6446 35.662C30.5358 35.662 30.4347 35.6318 30.3414 35.5716C30.2559 35.5113 30.186 35.4382 30.1315 35.3521C30.1082 35.3091 30.0849 35.266 30.0616 35.223C30.046 35.1714 30.0305 35.1283 30.0149 35.0939L31.2043 34.2934ZM29.7584 36.0751C29.8206 36.5399 29.875 37.0047 29.9217 37.4695C29.9683 37.9429 30.0072 38.4249 30.0383 38.9155C30.0538 39.2856 29.9877 39.5567 29.84 39.7289C29.6923 39.9096 29.4514 40 29.1171 40C28.8606 40 28.6623 39.9096 28.5224 39.7289C28.3903 39.5481 28.3048 39.2598 28.2659 38.8638C28.2348 38.4507 28.2037 38.016 28.1726 37.5599C28.1415 37.1037 28.1182 36.626 28.1026 36.1268C28.1026 35.8685 28.1881 35.6706 28.3592 35.5329C28.5302 35.3951 28.7129 35.3263 28.9072 35.3263C29.1093 35.3263 29.292 35.3865 29.4552 35.507C29.6185 35.6275 29.7195 35.8169 29.7584 36.0751Z" fill="#A50000"/>
<path d="M36.2014 36.6855C36.148 36.6855 36.0946 36.6855 36.0412 36.6855C35.9954 36.6855 35.942 36.6855 35.881 36.6855C35.6751 36.6855 35.5187 36.6206 35.4119 36.4906C35.3127 36.3607 35.2632 36.2265 35.2632 36.0879C35.2632 35.9406 35.3127 35.8107 35.4119 35.6981C35.5187 35.5768 35.6674 35.5162 35.8581 35.5162C35.9268 35.5162 35.9992 35.5162 36.0755 35.5162C36.1518 35.5162 36.2243 35.5162 36.2929 35.5162C36.476 35.5162 36.6095 35.5682 36.6934 35.6721C36.7773 35.7674 36.8192 35.8886 36.8192 36.0359C36.8192 36.1918 36.7658 36.3391 36.659 36.4776C36.5523 36.6162 36.3997 36.6855 36.2014 36.6855ZM35.4462 32.4759C35.4005 32.4759 35.3547 32.4759 35.3089 32.4759C35.2632 32.4759 35.2174 32.4759 35.1716 32.4759C34.9123 32.4759 34.7407 32.3936 34.6568 32.229C34.5728 32.0558 34.5309 31.8609 34.5309 31.6444C34.5309 31.4711 34.5767 31.3152 34.6682 31.1766C34.7597 31.038 34.8894 30.9687 35.0572 30.9687C35.1259 30.9687 35.1983 30.9687 35.2746 30.9687C35.3509 30.9687 35.4233 30.9687 35.492 30.9687C35.6751 30.9687 35.8238 31.0424 35.9382 31.1896C36.0526 31.3282 36.1098 31.5231 36.1098 31.7743C36.1098 32.0082 36.0717 32.1857 35.9954 32.307C35.9268 32.4196 35.7437 32.4759 35.4462 32.4759ZM31.8307 29.2537C32.1968 29.2537 32.4714 29.3663 32.6545 29.5915C32.8375 29.808 32.9291 30.1545 32.9291 30.6309C32.9291 30.9947 32.8413 31.2719 32.6659 31.4625C32.4905 31.653 32.2349 31.7483 31.8993 31.7483C31.5103 31.7483 31.2128 31.6227 31.0069 31.3715C30.8085 31.1117 30.7094 30.7609 30.7094 30.3191C30.7094 29.9553 30.8124 29.6868 31.0183 29.5135C31.2319 29.3403 31.5027 29.2537 31.8307 29.2537ZM30 41.8307C30 41.5275 30.0648 41.3066 30.1945 41.168C30.3318 41.0208 30.5416 40.8952 30.8238 40.7912C30.9992 40.7219 31.1823 40.6656 31.373 40.6223C31.5713 40.5704 31.7773 40.5054 31.9908 40.4274C32.3341 40.2975 32.582 40.1503 32.7346 39.9857C32.8871 39.8211 32.9901 39.5786 33.0435 39.2581C33.0587 39.1801 33.0702 39.1065 33.0778 39.0372C33.0931 38.9679 33.1045 38.8943 33.1121 38.8163C33.9741 39.0069 34.5576 39.0372 34.8627 38.9073C35.1678 38.7687 35.3204 38.5305 35.3204 38.1927C35.328 37.9415 35.1983 37.7509 34.9314 37.621C34.672 37.4911 34.1495 37.3871 33.3638 37.3092C33.4096 37.0493 33.4554 36.7938 33.5011 36.5426C33.5545 36.2914 33.5927 36.0359 33.6156 35.776C34.1266 35.8107 34.5309 35.8107 34.8284 35.776C35.1259 35.7327 35.3356 35.6548 35.4577 35.5422C35.5873 35.4296 35.6522 35.2693 35.6522 35.0614C35.6522 34.7929 35.5225 34.5894 35.2632 34.4508C35.0114 34.3035 34.5461 34.1909 33.8673 34.113C34.0122 33.1775 34.1495 32.2377 34.2792 31.2936C34.4088 30.3408 34.5309 29.3923 34.6453 28.4481C34.6911 28.0583 34.6644 27.8115 34.5652 27.7075C34.4661 27.6036 34.2792 27.5646 34.0046 27.5906C33.6003 27.5993 33.2685 27.6209 33.0092 27.6556C32.7574 27.6902 32.4485 27.7205 32.0824 27.7465C31.6629 27.7552 31.3196 27.7032 31.0526 27.5906C30.7933 27.4693 30.6636 27.2008 30.6636 26.7851C30.6636 26.4299 30.7895 26.1614 31.0412 25.9795C31.3005 25.7976 31.7086 25.6763 32.2654 25.6157C33.0892 25.5204 34.058 25.4165 35.1716 25.3039C36.2853 25.1826 37.3379 25.0873 38.3295 25.018C38.8253 24.9747 39.1838 25.0094 39.405 25.122C39.6339 25.2259 39.7483 25.4598 39.7483 25.8236C39.7483 26.1354 39.6491 26.3823 39.4508 26.5642C39.2525 26.7461 38.9931 26.9063 38.6728 27.0449C38.4211 27.1575 38.1503 27.2615 37.8604 27.3567C37.5782 27.452 37.2464 27.5819 36.865 27.7465C36.5904 27.8591 36.4111 27.9934 36.3272 28.1493C36.251 28.2965 36.2243 28.5001 36.2471 28.76C36.3844 30.6309 36.5484 32.5019 36.7391 34.3728C36.9298 36.2438 37.1396 38.1147 37.3684 39.9857C37.4066 40.2715 37.479 40.4881 37.5858 40.6353C37.7002 40.7739 37.8719 40.8779 38.1007 40.9471C38.299 40.9991 38.4744 41.0381 38.627 41.0641C38.7796 41.0901 38.9474 41.129 39.1304 41.181C39.3516 41.233 39.55 41.3196 39.7254 41.4409C39.9085 41.5535 40 41.7614 40 42.0645C40 42.333 39.939 42.5366 39.8169 42.6752C39.6949 42.8051 39.5271 42.8917 39.3135 42.935C39.0999 42.9783 38.8558 43 38.5812 43C38.4821 43 38.3219 43 38.1007 43C37.8871 42.9913 37.6392 42.9827 37.357 42.974C37.2731 42.974 37.1854 42.9697 37.0938 42.961C37.0023 42.9524 36.9069 42.948 36.8078 42.948C36.7162 42.948 36.6209 42.948 36.5217 42.948C36.4226 42.948 36.3158 42.948 36.2014 42.948C36.0946 42.9394 35.9878 42.935 35.881 42.935C35.7742 42.9264 35.6636 42.922 35.5492 42.922C35.3661 42.9134 35.1793 42.909 34.9886 42.909C34.8055 42.909 34.6224 42.9047 34.4394 42.8961C34.3173 42.8874 34.1915 42.8831 34.0618 42.8831C33.9397 42.8744 33.8177 42.8701 33.6957 42.8701C33.5812 42.8614 33.463 42.8571 33.341 42.8571C33.2571 42.8571 33.1693 42.8571 33.0778 42.8571C32.9939 42.8484 32.91 42.8441 32.8261 42.8441C32.7422 42.8354 32.6621 42.8311 32.5858 42.8311C32.3188 42.8138 32.0786 42.8008 31.865 42.7921C31.659 42.7835 31.495 42.7748 31.373 42.7661C30.9611 42.7401 30.6293 42.6665 30.3776 42.5453C30.1259 42.4153 30 42.1771 30 41.8307Z" fill="#A50000"/>
<path d="M87.5215 39.5984C87.4077 38.413 87.3052 37.1152 87.2141 35.7049C87.1306 34.286 87.066 32.8714 87.0205 31.4611C86.9977 30.7689 86.9939 30.0984 87.0091 29.4494C87.0243 28.8005 87.0584 28.2295 87.1116 27.7363C87.7265 27.944 88.201 28.0391 88.535 28.0218C88.869 27.9959 89.0854 27.8488 89.1841 27.5806C89.298 27.2691 89.2296 26.9706 88.9791 26.6851C88.7362 26.3909 88.2048 26.0838 87.3849 25.7636C87.5215 25.383 87.7037 24.9936 87.9315 24.5956C88.1668 24.1976 88.4098 23.8775 88.6603 23.6352C89.1158 24.3447 89.484 24.7946 89.7649 24.985C90.0533 25.1667 90.3228 25.1493 90.5734 24.933C90.8163 24.734 90.8808 24.4009 90.7669 23.9337C90.6531 23.4579 90.4367 22.9863 90.1179 22.5191C90.4291 22.3634 90.8504 22.2379 91.3819 22.1428C91.9133 22.0476 92.3726 22 92.7597 22C93.815 22 94.7335 22.1298 95.5155 22.3893C96.2974 22.6403 96.9465 23.0123 97.4627 23.5055C97.9789 23.99 98.3623 24.5783 98.6128 25.2705C98.8709 25.954 99 26.7327 99 27.6065C99 28.5669 98.833 29.4105 98.499 30.1373C98.1649 30.8641 97.7018 31.4352 97.1097 31.8505C96.5176 32.2571 95.8343 32.4604 95.06 32.4604C94.4071 32.4604 93.8567 32.3306 93.4088 32.0711C92.9685 31.8029 92.6345 31.4352 92.4067 30.9679C92.1866 30.5007 92.0765 29.96 92.0765 29.3456C92.0765 28.4717 92.3042 27.7752 92.7597 27.2561C93.2152 26.7283 93.7846 26.4645 94.4678 26.4645C95.022 26.4645 95.4585 26.6202 95.7774 26.9317C96.1038 27.2431 96.267 27.6022 96.267 28.0089C96.267 28.2425 96.2139 28.4328 96.1076 28.5799C96.0089 28.7183 95.8571 28.7875 95.6521 28.7875C95.5155 28.7875 95.4092 28.7573 95.3333 28.6967C95.2649 28.6275 95.2004 28.5496 95.1397 28.4631C95.0865 28.3679 95.0144 28.29 94.9233 28.2295C94.8322 28.1603 94.6956 28.1257 94.5134 28.1257C94.278 28.1257 94.0996 28.2295 93.9782 28.4371C93.8643 28.6448 93.8074 28.887 93.8074 29.1639C93.8074 29.6138 93.9326 29.9903 94.1831 30.2931C94.4337 30.5959 94.7563 30.7473 95.1511 30.7473C95.8115 30.7473 96.3316 30.4704 96.7111 29.9167C97.0983 29.3542 97.2919 28.6275 97.2919 27.7363C97.2919 26.7327 97.0528 25.9194 96.5745 25.2964C96.1038 24.6735 95.4396 24.362 94.5817 24.362C93.8985 24.362 93.2873 24.561 92.7483 24.959C92.2169 25.3483 91.7652 25.9194 91.3932 26.6721C91.0288 27.4248 90.7555 28.3333 90.5734 29.3975C90.4215 30.332 90.3114 31.0761 90.2431 31.6298C90.1824 32.1749 90.1634 32.5945 90.1862 32.8887C90.2166 33.1829 90.2849 33.4035 90.3912 33.5506C90.4974 33.6977 90.6417 33.8361 90.8239 33.9659C90.9605 34.0524 91.1237 34.1562 91.3135 34.2774C91.5033 34.3898 91.7121 34.511 91.9398 34.6407C92.0233 34.6753 92.1069 34.7186 92.1904 34.7705C92.2815 34.8224 92.3726 34.87 92.4637 34.9133C92.5699 34.9652 92.6762 35.0214 92.7825 35.082C92.8964 35.1426 93.0103 35.2031 93.1241 35.2637C93.2152 35.3069 93.3025 35.3545 93.386 35.4064C93.4771 35.4497 93.5644 35.493 93.6479 35.5362C93.7466 35.5881 93.8377 35.6401 93.9212 35.692C94.0047 35.7439 94.0883 35.7915 94.1718 35.8347C94.2401 35.8693 94.3046 35.9039 94.3653 35.9385C94.4337 35.9732 94.4982 36.0078 94.5589 36.0424C94.6273 36.077 94.6956 36.1116 94.7639 36.1462C95.6293 36.6221 96.3392 37.0201 96.8933 37.3402C97.4475 37.6603 97.8764 37.9502 98.1801 38.2097C98.4838 38.4606 98.6963 38.7159 98.8178 38.9754C98.9393 39.2263 99 39.5205 99 39.8579C99 40.1521 98.9089 40.416 98.7267 40.6496C98.5445 40.8832 98.2864 41 97.9524 41C97.8081 41 97.6449 40.9697 97.4627 40.9092C97.2881 40.8572 97.0528 40.7448 96.7567 40.5717C96.4682 40.3987 96.081 40.1434 95.5952 39.806C95.1093 39.4686 94.4868 39.0187 93.7276 38.4563C92.9761 37.8939 92.0461 37.1931 90.9378 36.3538C90.5278 36.0424 90.209 35.9299 89.9812 36.0164C89.7611 36.0943 89.6168 36.3365 89.5485 36.7432C89.4498 37.2883 89.3777 37.8463 89.3321 38.4174C89.2866 38.9797 89.2296 39.4426 89.1613 39.806C89.0854 40.1781 88.9905 40.4636 88.8766 40.6626C88.7628 40.8529 88.5844 40.9481 88.3414 40.9481C88.0681 40.9481 87.8745 40.8356 87.7607 40.6107C87.6468 40.3857 87.5671 40.0483 87.5215 39.5984ZM88.5464 38.9235C88.3414 38.9235 88.182 38.8673 88.0681 38.7548C87.9618 38.6337 87.9087 38.4044 87.9087 38.067C87.9087 37.7814 87.9543 37.5868 88.0454 37.4829C88.144 37.3791 88.2959 37.3402 88.5009 37.3661L88.5464 38.9235ZM87.8632 34.8224C87.7265 34.8051 87.6164 34.7532 87.5329 34.6667C87.4494 34.5802 87.4077 34.3898 87.4077 34.0957C87.4077 33.7669 87.4494 33.5549 87.5329 33.4597C87.624 33.3646 87.7872 33.3256 88.0226 33.3429L87.8632 34.8224ZM96.1076 35.7569C95.7432 35.7569 95.4547 35.6487 95.2422 35.4324C95.0296 35.2161 94.9233 34.9263 94.9233 34.5629C94.9233 34.0697 95.0182 33.7063 95.208 33.4727C95.3978 33.2305 95.6749 33.1093 96.0393 33.1093C96.4416 33.1093 96.7453 33.2175 96.9503 33.4338C97.1628 33.6414 97.2691 33.9659 97.2691 34.4071C97.2691 34.8311 97.1704 35.1642 96.9731 35.4064C96.7833 35.6401 96.4948 35.7569 96.1076 35.7569Z" fill="#A50000"/>
<path d="M77 38.8793C77 37.4795 77.0073 36.1519 77.0219 34.8966C77.0437 33.6413 77.0656 32.3317 77.0875 30.968C77.7801 30.968 78.3013 30.9364 78.6513 30.8732C79.0012 30.81 79.2345 30.7061 79.3512 30.5616C79.4678 30.4171 79.5225 30.2275 79.5152 29.9927C79.5079 29.7759 79.4496 29.6043 79.3402 29.4779C79.2382 29.3514 79.0158 29.2701 78.6731 29.234C78.3378 29.1888 77.8238 29.1888 77.1312 29.234C77.1312 29.0172 77.1312 28.7508 77.1312 28.4347C77.1385 28.1096 77.1458 27.8341 77.1531 27.6084C77.955 27.5632 78.4654 27.4684 78.6841 27.3239C78.9028 27.1703 79.0122 26.94 79.0122 26.633C79.0122 26.3079 78.8992 26.0685 78.6731 25.915C78.4471 25.7615 77.9405 25.6937 77.1531 25.7118C77.1531 25.5583 77.1567 25.3777 77.164 25.1699C77.1786 24.9622 77.1896 24.7184 77.1968 24.4384C77.2187 23.6798 77.401 23.1605 77.7436 22.8805C78.0863 22.5915 78.5456 22.4154 79.1215 22.3522C79.5589 22.3071 79.9964 22.2619 80.4338 22.2167C80.8712 22.1716 81.305 22.1355 81.7351 22.1084C82.1653 22.0723 82.5844 22.0452 82.9927 22.0271C83.4083 22.009 83.8092 22 84.1956 22C84.7789 22 85.1944 22.1039 85.4423 22.3116C85.6902 22.5193 85.8141 22.8489 85.8141 23.3005C85.8141 23.5895 85.7776 23.8288 85.7047 24.0185C85.6318 24.1991 85.5188 24.3346 85.3657 24.4249C85.2199 24.5061 85.034 24.5468 84.808 24.5468C84.7861 24.5468 84.757 24.5468 84.7205 24.5468C84.6914 24.5468 84.6586 24.5468 84.6221 24.5468C84.5857 24.5468 84.5492 24.5468 84.5128 24.5468C84.418 24.5378 84.3232 24.5332 84.2284 24.5332C84.1409 24.5332 84.0644 24.5287 83.9988 24.5197C83.7801 24.5016 83.5468 24.4881 83.2989 24.4791C83.0583 24.47 82.8214 24.461 82.5881 24.452C82.5371 24.452 82.486 24.452 82.435 24.452C82.384 24.4429 82.3293 24.4384 82.271 24.4384C82.2199 24.4384 82.1689 24.4384 82.1179 24.4384C82.0668 24.4294 82.0158 24.4249 81.9648 24.4249C81.921 24.4249 81.8773 24.4249 81.8335 24.4249C81.7388 24.4158 81.6476 24.4113 81.5601 24.4113C81.48 24.4113 81.4034 24.4113 81.3305 24.4113C81.068 24.4113 80.8931 24.4836 80.8056 24.6281C80.7181 24.7726 80.6889 25.0977 80.7181 25.6034C80.7618 26.344 80.8165 27.0168 80.8821 27.6219C80.9478 28.227 81.0243 28.8908 81.1118 29.6134C81.1555 29.9656 81.2211 30.2049 81.3086 30.3313C81.4034 30.4578 81.5638 30.5074 81.7898 30.4804C82.1106 30.4352 82.4386 30.3855 82.774 30.3313C83.1166 30.2681 83.4083 30.2184 83.6488 30.1823C83.9332 30.1372 84.1446 30.232 84.2831 30.4668C84.4289 30.7016 84.5018 30.9771 84.5018 31.2932C84.5018 31.5912 84.4326 31.8757 84.294 32.1466C84.1555 32.4085 83.9478 32.5485 83.6707 32.5665C83.5103 32.5756 83.3427 32.5846 83.1677 32.5936C82.9927 32.6027 82.8105 32.6117 82.6209 32.6207C82.5407 32.6298 82.4605 32.6343 82.3803 32.6343C82.3074 32.6343 82.2309 32.6388 82.1507 32.6478C82.0778 32.6478 82.0012 32.6523 81.921 32.6614C81.8481 32.6614 81.7752 32.6614 81.7023 32.6614C81.5638 32.6704 81.4253 32.6794 81.2868 32.6885C81.1555 32.6885 81.0207 32.693 80.8821 32.702C80.8384 32.702 80.791 32.702 80.74 32.702C80.6962 32.702 80.6488 32.7065 80.5978 32.7156C80.5541 32.7156 80.5067 32.7156 80.4557 32.7156C80.4119 32.7156 80.3682 32.7201 80.3244 32.7291C80.2807 32.7291 80.2333 32.7291 80.1823 32.7291C80.1385 32.7291 80.0948 32.7336 80.051 32.7427C79.9344 32.7517 79.8177 32.7607 79.7011 32.7698C79.5917 32.7788 79.486 32.7833 79.384 32.7833C79.2236 32.7923 79.0923 32.8691 78.9903 33.0136C78.8955 33.1581 78.8736 33.4155 78.9247 33.7858C79.0267 34.445 79.1434 35.0998 79.2746 35.75C79.4058 36.3912 79.5516 37.046 79.712 37.7143C79.7995 38.0756 79.9052 38.3104 80.0292 38.4187C80.1531 38.5181 80.3244 38.5542 80.5431 38.5271C81.2795 38.4278 82.0122 38.3194 82.7412 38.202C83.4775 38.0846 84.2321 37.9852 85.0049 37.904C85.3402 37.8678 85.5881 37.9943 85.7485 38.2833C85.9162 38.5723 86 38.8884 86 39.2315C86 39.5386 85.9307 39.8231 85.7922 40.085C85.661 40.3469 85.4569 40.4869 85.1798 40.5049C84.0571 40.5591 82.9271 40.5817 81.7898 40.5727C80.6598 40.5636 79.5298 40.5591 78.3998 40.5591C77.8967 40.5591 77.5358 40.4101 77.3171 40.1121C77.1057 39.8141 77 39.4031 77 38.8793ZM79.9745 39.665L81.3961 39.6921C81.4253 40.7127 81.4216 41.4713 81.3852 41.968C81.356 42.4737 81.2831 42.8079 81.1665 42.9704C81.0571 43.133 80.9004 43.2143 80.6962 43.2143C80.4848 43.2143 80.3244 43.1285 80.2151 42.9569C80.113 42.7943 80.0437 42.4602 80.0073 41.9544C79.9781 41.4487 79.9672 40.6856 79.9745 39.665ZM83.3208 42.8079C83.2916 42.3202 83.2661 41.8235 83.2442 41.3177C83.2224 40.821 83.2041 40.3243 83.1896 39.8276C83.1823 39.2586 83.2296 38.8703 83.3317 38.6626C83.4411 38.4458 83.627 38.3375 83.8894 38.3375C84.1227 38.3375 84.294 38.4368 84.4034 38.6355C84.52 38.8251 84.5893 39.1503 84.6112 39.6109C84.6331 40.1256 84.6513 40.6359 84.6659 41.1416C84.6804 41.6474 84.6914 42.1576 84.6987 42.6724C84.7132 43.133 84.6586 43.4672 84.5346 43.6749C84.418 43.8916 84.254 44 84.0425 44C83.8238 44 83.6561 43.9097 83.5395 43.7291C83.4301 43.5575 83.3572 43.2504 83.3208 42.8079ZM83.8019 36.6848C83.4156 36.6848 83.1166 36.5538 82.9052 36.2919C82.7011 36.03 82.599 35.6552 82.599 35.1675C82.599 34.6798 82.6975 34.3231 82.8943 34.0973C83.0984 33.8716 83.3791 33.7587 83.7363 33.7587C84.1227 33.7587 84.4216 33.8806 84.633 34.1244C84.8518 34.3683 84.9611 34.6889 84.9611 35.0862C84.9611 35.6281 84.8518 36.03 84.633 36.2919C84.4216 36.5538 84.1446 36.6848 83.8019 36.6848ZM82.3803 22.9754C82.3803 22.7947 82.4496 22.6367 82.5881 22.5012C82.7266 22.3658 82.8834 22.298 83.0583 22.298C83.2479 22.298 83.4228 22.3251 83.5832 22.3793C83.7509 22.4245 83.8384 22.5509 83.8457 22.7586C83.8603 22.8489 83.8712 22.9438 83.8785 23.0431C83.8858 23.1334 83.8894 23.2192 83.8894 23.3005C83.8894 23.4992 83.8238 23.6708 83.6926 23.8153C83.5614 23.9598 83.401 24.032 83.2114 24.032C83.0365 24.032 82.8651 23.9959 82.6975 23.9236C82.5371 23.8424 82.4459 23.6888 82.4241 23.463C82.4168 23.3818 82.4058 23.3005 82.3913 23.2192C82.384 23.1379 82.3803 23.0566 82.3803 22.9754ZM79.4058 23.8695L79.209 25.6034C78.9465 25.5583 78.7424 25.477 78.5966 25.3596C78.4508 25.2332 78.3779 25.0164 78.3779 24.7093C78.3779 24.33 78.469 24.0952 78.6513 24.0049C78.8408 23.9146 79.0923 23.8695 79.4058 23.8695Z" fill="#A50000"/>
<path d="M54 34.1121C54 32.7759 54.0081 31.5086 54.0243 30.3103C54.0486 29.1121 54.0729 27.8621 54.0972 26.5603C54.8667 26.5603 55.4459 26.5302 55.8348 26.4698C56.2236 26.4095 56.4828 26.3103 56.6124 26.1724C56.742 26.0345 56.8028 25.8534 56.7947 25.6293C56.7866 25.4224 56.7218 25.2586 56.6002 25.1379C56.4868 25.0172 56.2398 24.9397 55.8591 24.9052C55.4864 24.8621 54.9154 24.8621 54.1458 24.9052C54.1458 24.6983 54.1458 24.444 54.1458 24.1422C54.1539 23.8319 54.162 23.569 54.1701 23.3534C55.0612 23.3103 55.6282 23.2198 55.8712 23.0819C56.1142 22.9353 56.2357 22.7155 56.2357 22.4224C56.2357 22.1121 56.1102 21.8836 55.8591 21.7371C55.6079 21.5905 55.045 21.5259 54.1701 21.5431C54.1701 21.3966 54.1742 21.2241 54.1823 21.0259C54.1985 20.8276 54.2106 20.5948 54.2187 20.3276C54.243 19.6034 54.4455 19.1078 54.8262 18.8405C55.207 18.5647 55.7173 18.3966 56.3572 18.3362C56.8433 18.2931 57.3293 18.25 57.8153 18.2069C58.3013 18.1638 58.7833 18.1293 59.2612 18.1034C59.7392 18.069 60.2049 18.0431 60.6586 18.0259C61.1203 18.0086 61.5658 18 61.9951 18C62.6432 18 63.1049 18.0991 63.3803 18.2974C63.6557 18.4957 63.7934 18.8103 63.7934 19.2414C63.7934 19.5172 63.7529 19.7457 63.6719 19.9267C63.5909 20.0991 63.4654 20.2284 63.2953 20.3147C63.1333 20.3922 62.9267 20.431 62.6756 20.431C62.6513 20.431 62.6189 20.431 62.5784 20.431C62.546 20.431 62.5095 20.431 62.469 20.431C62.4285 20.431 62.388 20.431 62.3475 20.431C62.2422 20.4224 62.1369 20.4181 62.0316 20.4181C61.9344 20.4181 61.8493 20.4138 61.7764 20.4052C61.5334 20.3879 61.2742 20.375 60.9988 20.3664C60.7315 20.3578 60.4682 20.3491 60.209 20.3405C60.1523 20.3405 60.0956 20.3405 60.0389 20.3405C59.9822 20.3319 59.9214 20.3276 59.8566 20.3276C59.7999 20.3276 59.7432 20.3276 59.6865 20.3276C59.6298 20.319 59.5731 20.3147 59.5164 20.3147C59.4678 20.3147 59.4192 20.3147 59.3706 20.3147C59.2653 20.306 59.164 20.3017 59.0668 20.3017C58.9777 20.3017 58.8927 20.3017 58.8117 20.3017C58.52 20.3017 58.3256 20.3707 58.2284 20.5086C58.1312 20.6466 58.0988 20.9569 58.1312 21.4397C58.1798 22.1466 58.2406 22.7888 58.3135 23.3664C58.3864 23.944 58.4714 24.5776 58.5687 25.2672C58.6173 25.6034 58.6902 25.8319 58.7874 25.9526C58.8927 26.0733 59.0709 26.1207 59.322 26.0948C59.6784 26.0517 60.0429 26.0043 60.4156 25.9526C60.7963 25.8922 61.1203 25.8448 61.3876 25.8103C61.7035 25.7672 61.9384 25.8578 62.0923 26.0819C62.2544 26.306 62.3354 26.569 62.3354 26.8707C62.3354 27.1552 62.2584 27.4267 62.1045 27.6853C61.9506 27.9353 61.7197 28.069 61.4119 28.0862C61.2337 28.0948 61.0474 28.1034 60.853 28.1121C60.6586 28.1207 60.4561 28.1293 60.2454 28.1379C60.1563 28.1466 60.0672 28.1509 59.9781 28.1509C59.8971 28.1509 59.8121 28.1552 59.723 28.1638C59.642 28.1638 59.5569 28.1681 59.4678 28.1767C59.3868 28.1767 59.3058 28.1767 59.2248 28.1767C59.0709 28.1853 58.917 28.194 58.7631 28.2026C58.6173 28.2026 58.4674 28.2069 58.3135 28.2155C58.2649 28.2155 58.2122 28.2155 58.1555 28.2155C58.1069 28.2155 58.0543 28.2198 57.9976 28.2284C57.949 28.2284 57.8963 28.2284 57.8396 28.2284C57.791 28.2284 57.7424 28.2328 57.6938 28.2414C57.6452 28.2414 57.5925 28.2414 57.5358 28.2414C57.4872 28.2414 57.4386 28.2457 57.39 28.2543C57.2604 28.2629 57.1308 28.2716 57.0012 28.2802C56.8797 28.2888 56.7623 28.2931 56.6488 28.2931C56.4706 28.3017 56.3248 28.375 56.2114 28.5129C56.1061 28.6509 56.0818 28.8966 56.1385 29.25C56.2519 29.8793 56.3815 30.5043 56.5273 31.125C56.6731 31.7371 56.8352 32.3621 57.0134 33C57.1106 33.3448 57.228 33.569 57.3657 33.6724C57.5034 33.7672 57.6938 33.8017 57.9368 33.7759C58.755 33.681 59.5691 33.5776 60.3791 33.4655C61.1972 33.3534 62.0356 33.2586 62.8943 33.181C63.2669 33.1466 63.5423 33.2672 63.7205 33.5431C63.9068 33.819 64 34.1207 64 34.4483C64 34.7414 63.923 35.0129 63.7691 35.2629C63.6233 35.5129 63.3965 35.6466 63.0887 35.6638C61.8412 35.7155 60.5857 35.7371 59.322 35.7284C58.0664 35.7198 56.8109 35.7155 55.5553 35.7155C54.9964 35.7155 54.5954 35.5733 54.3524 35.2888C54.1175 35.0043 54 34.6121 54 34.1121ZM57.305 34.8621L58.8846 34.8879C58.917 35.8621 58.9129 36.5862 58.8724 37.0603C58.84 37.5431 58.759 37.8621 58.6294 38.0172C58.5079 38.1724 58.3337 38.25 58.1069 38.25C57.872 38.25 57.6938 38.1681 57.5723 38.0043C57.4589 37.8491 57.3819 37.5302 57.3414 37.0474C57.309 36.5647 57.2969 35.8362 57.305 34.8621ZM61.0231 37.8621C60.9907 37.3966 60.9623 36.9224 60.938 36.4397C60.9137 35.9655 60.8935 35.4914 60.8773 35.0172C60.8692 34.4741 60.9218 34.1034 61.0352 33.9052C61.1567 33.6983 61.3633 33.5948 61.6549 33.5948C61.9141 33.5948 62.1045 33.6897 62.226 33.8793C62.3556 34.0603 62.4326 34.3707 62.4569 34.8103C62.4812 35.3017 62.5014 35.7888 62.5176 36.2716C62.5338 36.7543 62.546 37.2414 62.5541 37.7328C62.5703 38.1724 62.5095 38.4914 62.3718 38.6897C62.2422 38.8966 62.0599 39 61.825 39C61.582 39 61.3957 38.9138 61.2661 38.7414C61.1446 38.5776 61.0636 38.2845 61.0231 37.8621ZM61.5577 32.0172C61.1284 32.0172 60.7963 31.8922 60.5614 31.6422C60.3345 31.3922 60.2211 31.0345 60.2211 30.569C60.2211 30.1034 60.3305 29.7629 60.5492 29.5474C60.776 29.3319 61.0879 29.2241 61.4848 29.2241C61.9141 29.2241 62.2463 29.3405 62.4812 29.5733C62.7242 29.806 62.8457 30.1121 62.8457 30.4914C62.8457 31.0086 62.7242 31.3922 62.4812 31.6422C62.2463 31.8922 61.9384 32.0172 61.5577 32.0172ZM59.9781 18.931C59.9781 18.7586 60.0551 18.6078 60.209 18.4784C60.3629 18.3491 60.5371 18.2845 60.7315 18.2845C60.9421 18.2845 61.1365 18.3103 61.3147 18.3621C61.501 18.4052 61.5982 18.5259 61.6063 18.7241C61.6225 18.8103 61.6347 18.9009 61.6428 18.9957C61.6509 19.0819 61.6549 19.1638 61.6549 19.2414C61.6549 19.431 61.582 19.5948 61.4362 19.7328C61.2904 19.8707 61.1122 19.9397 60.9016 19.9397C60.7072 19.9397 60.5168 19.9052 60.3305 19.8362C60.1523 19.7586 60.051 19.6121 60.0267 19.3966C60.0186 19.319 60.0065 19.2414 59.9903 19.1638C59.9822 19.0862 59.9781 19.0086 59.9781 18.931ZM56.6731 19.7845L56.4544 21.4397C56.1628 21.3966 55.936 21.319 55.774 21.2069C55.612 21.0862 55.531 20.8793 55.531 20.5862C55.531 20.2241 55.6322 20 55.8348 19.9138C56.0454 19.8276 56.3248 19.7845 56.6731 19.7845Z" fill="#A50000"/>
<path d="M70.6246 43C69.8915 43 69.2683 42.7916 68.7551 42.3747C68.2419 41.9578 67.8672 41.3856 67.631 40.6583C67.5577 40.4276 67.4803 40.1881 67.3988 39.9398C67.3174 39.6914 67.24 39.443 67.1667 39.1947C67.1341 39.0971 67.1015 38.9995 67.0689 38.902C67.0445 38.7955 67.016 38.6979 66.9834 38.6092C66.9508 38.4851 66.9141 38.3698 66.8734 38.2633C66.8408 38.148 66.8082 38.0416 66.7757 37.944C66.7268 37.7754 66.6657 37.5803 66.5924 37.3585C66.5191 37.1279 66.4498 36.9195 66.3847 36.7332C66.3521 36.609 66.3195 36.4981 66.2869 36.4006C66.2543 36.303 66.2258 36.2187 66.2014 36.1478C66.1769 36.0591 66.1484 35.9659 66.1158 35.8684C66.0833 35.7708 66.0507 35.6688 66.0181 35.5623C65.9937 35.4559 65.9611 35.345 65.9203 35.2297C65.7493 34.662 65.5456 33.9834 65.3094 33.194C65.0732 32.3957 64.8328 31.584 64.5885 30.7591C64.3441 29.9253 64.116 29.1536 63.9042 28.444C63.7006 27.7344 63.5417 27.1755 63.4277 26.7675C63.2322 26.049 63.2444 25.5035 63.4643 25.131C63.6843 24.7495 64.0142 24.5588 64.4541 24.5588C64.7473 24.5588 64.9958 24.6786 65.1994 24.9181C65.4112 25.1576 65.5782 25.5168 65.7004 25.9958C66.1321 27.5747 66.5517 29.2068 66.9589 30.8922C67.3744 32.5686 67.8184 34.2008 68.2908 35.7885C68.4293 36.2764 68.5841 36.6268 68.7551 36.8396C68.9344 37.0525 69.1624 37.159 69.4394 37.159C69.7001 37.159 69.9404 37.0614 70.1603 36.8663C70.3803 36.6622 70.5798 36.3385 70.7591 35.895C71.4596 34.1209 72.1276 32.3469 72.763 30.5728C73.3983 28.7899 74.05 27.0159 74.718 25.2507C74.8891 24.8072 75.0846 24.4879 75.3045 24.2927C75.5245 24.0976 75.7607 24 76.0132 24C76.4938 24 76.7912 24.1907 76.9052 24.5721C77.0274 24.9535 77.0315 25.4104 76.9174 25.9426C76.5916 27.5747 76.2454 29.2112 75.8788 30.8523C75.5122 32.4844 75.1334 34.1121 74.7424 35.7353C74.3107 35.5579 73.9075 35.4248 73.5328 35.3361C73.158 35.2474 72.8566 35.2474 72.6286 35.3361C72.4086 35.4248 72.2986 35.651 72.2986 36.0147C72.2986 36.2631 72.4453 36.476 72.7385 36.6534C73.0399 36.8219 73.602 36.9949 74.4247 37.1723C74.3759 37.4118 74.3188 37.6424 74.2537 37.8642C74.1967 38.0859 74.1315 38.3165 74.0582 38.556C73.4798 38.3431 72.9585 38.1835 72.4941 38.077C72.038 37.9617 71.6755 37.9484 71.4067 38.0371C71.146 38.117 71.0156 38.3387 71.0156 38.7024C71.0156 38.9685 71.1989 39.1991 71.5655 39.3943C71.9321 39.5894 72.6408 39.789 73.6916 39.993C73.6916 39.993 73.6875 40.0107 73.6794 40.0462C73.6712 40.0728 73.659 40.1083 73.6427 40.1527C73.4554 40.88 73.2191 41.4521 72.934 41.869C72.6571 42.2859 72.3272 42.5787 71.9443 42.7472C71.5614 42.9157 71.1215 43 70.6246 43ZM69.8304 28.7367C69.3905 28.7367 69.0199 28.5859 68.7185 28.2843C68.4171 27.9739 68.2664 27.4682 68.2664 26.7675C68.2664 26.2442 68.4252 25.8361 68.7429 25.5434C69.0606 25.2418 69.4638 25.091 69.9526 25.091C70.4332 25.091 70.8283 25.2507 71.1378 25.57C71.4555 25.8894 71.6144 26.395 71.6144 27.0868C71.6144 27.4949 71.4474 27.8718 71.1134 28.2178C70.7876 28.5637 70.3599 28.7367 69.8304 28.7367ZM74.7913 30.972C74.9624 31.0252 75.0846 31.1184 75.1579 31.2514C75.2312 31.3845 75.2679 31.5308 75.2679 31.6905C75.2679 31.9034 75.2312 32.0896 75.1579 32.2493C75.0846 32.409 74.9787 32.5199 74.8402 32.5819C74.7017 32.644 74.5306 32.6485 74.327 32.5952C74.2537 32.5864 74.1763 32.5686 74.0948 32.542C74.0134 32.5154 73.936 32.4977 73.8627 32.4888C73.6753 32.4356 73.5368 32.3469 73.4472 32.2227C73.3576 32.0985 73.3128 31.9433 73.3128 31.757C73.3128 31.3667 73.3902 31.0873 73.545 30.9188C73.6998 30.7414 73.9441 30.697 74.2781 30.7857C74.3514 30.8123 74.437 30.8434 74.5347 30.8789C74.6325 30.9143 74.718 30.9454 74.7913 30.972ZM67.3377 30.3067C67.7532 30.1826 68.132 30.0939 68.4741 30.0406C68.8162 29.9785 69.0851 30.0007 69.2806 30.1072C69.4842 30.2047 69.586 30.4354 69.586 30.799C69.586 31.074 69.4435 31.3046 69.1584 31.4909C68.8733 31.6683 68.413 31.859 67.7776 32.063C67.3377 32.205 66.8856 32.338 66.4213 32.4622C65.9651 32.5864 65.5049 32.7106 65.0406 32.8347C64.4785 32.9767 63.9979 33.0476 63.5987 33.0476C63.1996 33.0388 63 32.7815 63 32.2759C63 32.0453 63.1303 31.8546 63.391 31.7038C63.6517 31.5441 64.0712 31.3623 64.6496 31.1583C65.0894 30.9986 65.5293 30.8523 65.9692 30.7192C66.4172 30.5773 66.8734 30.4398 67.3377 30.3067ZM64.9184 26.6078C65.1791 26.5635 65.4031 26.6123 65.5904 26.7542C65.7778 26.8873 65.8715 27.0957 65.8715 27.3795C65.8715 27.6457 65.8185 27.8408 65.7126 27.965C65.6067 28.0803 65.4071 28.1867 65.1139 28.2843C65.0406 28.3109 64.9632 28.3331 64.8817 28.3508C64.8003 28.3597 64.7147 28.373 64.6251 28.3908C64.4052 28.4262 64.23 28.3198 64.0997 28.0714C63.9775 27.8231 63.9164 27.5924 63.9164 27.3795C63.9164 27.2465 63.9531 27.1223 64.0264 27.007C64.0997 26.8828 64.226 26.7941 64.4052 26.7409C64.4785 26.7143 64.56 26.6877 64.6496 26.6611C64.7473 26.6345 64.8369 26.6167 64.9184 26.6078Z" fill="#A50000"/>
<path d="M110 38.8793C110 37.4795 110.008 36.1519 110.024 34.8966C110.049 33.6413 110.073 32.3317 110.097 30.968C110.867 30.968 111.446 30.9364 111.835 30.8732C112.224 30.81 112.483 30.7061 112.612 30.5616C112.742 30.4171 112.803 30.2275 112.795 29.9927C112.787 29.7759 112.722 29.6043 112.6 29.4779C112.487 29.3514 112.24 29.2701 111.859 29.234C111.486 29.1888 110.915 29.1888 110.146 29.234C110.146 29.0172 110.146 28.7508 110.146 28.4347C110.154 28.1096 110.162 27.8341 110.17 27.6084C111.061 27.5632 111.628 27.4684 111.871 27.3239C112.114 27.1703 112.236 26.94 112.236 26.633C112.236 26.3079 112.11 26.0685 111.859 25.915C111.608 25.7615 111.045 25.6937 110.17 25.7118C110.17 25.5583 110.174 25.3777 110.182 25.1699C110.198 24.9622 110.211 24.7184 110.219 24.4384C110.243 23.6798 110.446 23.1605 110.826 22.8805C111.207 22.5915 111.717 22.4154 112.357 22.3522C112.843 22.3071 113.329 22.2619 113.815 22.2167C114.301 22.1716 114.783 22.1355 115.261 22.1084C115.739 22.0723 116.205 22.0452 116.659 22.0271C117.12 22.009 117.566 22 117.995 22C118.643 22 119.105 22.1039 119.38 22.3116C119.656 22.5193 119.793 22.8489 119.793 23.3005C119.793 23.5895 119.753 23.8288 119.672 24.0185C119.591 24.1991 119.465 24.3346 119.295 24.4249C119.133 24.5061 118.927 24.5468 118.676 24.5468C118.651 24.5468 118.619 24.5468 118.578 24.5468C118.546 24.5468 118.51 24.5468 118.469 24.5468C118.429 24.5468 118.388 24.5468 118.348 24.5468C118.242 24.5378 118.137 24.5332 118.032 24.5332C117.934 24.5332 117.849 24.5287 117.776 24.5197C117.533 24.5016 117.274 24.4881 116.999 24.4791C116.731 24.47 116.468 24.461 116.209 24.452C116.152 24.452 116.096 24.452 116.039 24.452C115.982 24.4429 115.921 24.4384 115.857 24.4384C115.8 24.4384 115.743 24.4384 115.687 24.4384C115.63 24.4294 115.573 24.4249 115.516 24.4249C115.468 24.4249 115.419 24.4249 115.371 24.4249C115.265 24.4158 115.164 24.4113 115.067 24.4113C114.978 24.4113 114.893 24.4113 114.812 24.4113C114.52 24.4113 114.326 24.4836 114.228 24.6281C114.131 24.7726 114.099 25.0977 114.131 25.6034C114.18 26.344 114.241 27.0168 114.313 27.6219C114.386 28.227 114.471 28.8908 114.569 29.6134C114.617 29.9656 114.69 30.2049 114.787 30.3313C114.893 30.4578 115.071 30.5074 115.322 30.4804C115.678 30.4352 116.043 30.3855 116.416 30.3313C116.796 30.2681 117.12 30.2184 117.388 30.1823C117.704 30.1372 117.938 30.232 118.092 30.4668C118.254 30.7016 118.335 30.9771 118.335 31.2932C118.335 31.5912 118.258 31.8757 118.104 32.1466C117.951 32.4085 117.72 32.5485 117.412 32.5665C117.234 32.5756 117.047 32.5846 116.853 32.5936C116.659 32.6027 116.456 32.6117 116.245 32.6207C116.156 32.6298 116.067 32.6343 115.978 32.6343C115.897 32.6343 115.812 32.6388 115.723 32.6478C115.642 32.6478 115.557 32.6523 115.468 32.6614C115.387 32.6614 115.306 32.6614 115.225 32.6614C115.071 32.6704 114.917 32.6794 114.763 32.6885C114.617 32.6885 114.467 32.693 114.313 32.702C114.265 32.702 114.212 32.702 114.156 32.702C114.107 32.702 114.054 32.7065 113.998 32.7156C113.949 32.7156 113.896 32.7156 113.84 32.7156C113.791 32.7156 113.742 32.7201 113.694 32.7291C113.645 32.7291 113.593 32.7291 113.536 32.7291C113.487 32.7291 113.439 32.7336 113.39 32.7427C113.26 32.7517 113.131 32.7607 113.001 32.7698C112.88 32.7788 112.762 32.7833 112.649 32.7833C112.471 32.7923 112.325 32.8691 112.211 33.0136C112.106 33.1581 112.082 33.4155 112.139 33.7858C112.252 34.445 112.382 35.0998 112.527 35.75C112.673 36.3912 112.835 37.046 113.013 37.7143C113.111 38.0756 113.228 38.3104 113.366 38.4187C113.503 38.5181 113.694 38.5542 113.937 38.5271C114.755 38.4278 115.569 38.3194 116.379 38.202C117.197 38.0846 118.036 37.9852 118.894 37.904C119.267 37.8678 119.542 37.9943 119.721 38.2833C119.907 38.5723 120 38.8884 120 39.2315C120 39.5386 119.923 39.8231 119.769 40.085C119.623 40.3469 119.397 40.4869 119.089 40.5049C117.841 40.5591 116.586 40.5817 115.322 40.5727C114.066 40.5636 112.811 40.5591 111.555 40.5591C110.996 40.5591 110.595 40.4101 110.352 40.1121C110.117 39.8141 110 39.4031 110 38.8793ZM113.305 39.665L114.885 39.6921C114.917 40.7127 114.913 41.4713 114.872 41.968C114.84 42.4737 114.759 42.8079 114.629 42.9704C114.508 43.133 114.334 43.2143 114.107 43.2143C113.872 43.2143 113.694 43.1285 113.572 42.9569C113.459 42.7943 113.382 42.4602 113.341 41.9544C113.309 41.4487 113.297 40.6856 113.305 39.665ZM117.023 42.8079C116.991 42.3202 116.962 41.8235 116.938 41.3177C116.914 40.821 116.893 40.3243 116.877 39.8276C116.869 39.2586 116.922 38.8703 117.035 38.6626C117.157 38.4458 117.363 38.3375 117.655 38.3375C117.914 38.3375 118.104 38.4368 118.226 38.6355C118.356 38.8251 118.433 39.1503 118.457 39.6109C118.481 40.1256 118.501 40.6359 118.518 41.1416C118.534 41.6474 118.546 42.1576 118.554 42.6724C118.57 43.133 118.51 43.4672 118.372 43.6749C118.242 43.8916 118.06 44 117.825 44C117.582 44 117.396 43.9097 117.266 43.7291C117.145 43.5575 117.064 43.2504 117.023 42.8079ZM117.558 36.6848C117.128 36.6848 116.796 36.5538 116.561 36.2919C116.335 36.03 116.221 35.6552 116.221 35.1675C116.221 34.6798 116.33 34.3231 116.549 34.0973C116.776 33.8716 117.088 33.7587 117.485 33.7587C117.914 33.7587 118.246 33.8806 118.481 34.1244C118.724 34.3683 118.846 34.6889 118.846 35.0862C118.846 35.6281 118.724 36.03 118.481 36.2919C118.246 36.5538 117.938 36.6848 117.558 36.6848ZM115.978 22.9754C115.978 22.7947 116.055 22.6367 116.209 22.5012C116.363 22.3658 116.537 22.298 116.731 22.298C116.942 22.298 117.136 22.3251 117.315 22.3793C117.501 22.4245 117.598 22.5509 117.606 22.7586C117.623 22.8489 117.635 22.9438 117.643 23.0431C117.651 23.1334 117.655 23.2192 117.655 23.3005C117.655 23.4992 117.582 23.6708 117.436 23.8153C117.29 23.9598 117.112 24.032 116.902 24.032C116.707 24.032 116.517 23.9959 116.33 23.9236C116.152 23.8424 116.051 23.6888 116.027 23.463C116.019 23.3818 116.006 23.3005 115.99 23.2192C115.982 23.1379 115.978 23.0566 115.978 22.9754ZM112.673 23.8695L112.454 25.6034C112.163 25.5583 111.936 25.477 111.774 25.3596C111.612 25.2332 111.531 25.0164 111.531 24.7093C111.531 24.33 111.632 24.0952 111.835 24.0049C112.045 23.9146 112.325 23.8695 112.673 23.8695Z" fill="#A50000"/>
<path d="M119 40.8793C119 39.4795 119.008 38.1519 119.024 36.8966C119.049 35.6412 119.073 34.3317 119.097 32.968C119.867 32.968 120.446 32.9364 120.835 32.8732C121.224 32.8099 121.483 32.7061 121.612 32.5616C121.742 32.4171 121.803 32.2274 121.795 31.9926C121.787 31.7759 121.722 31.6043 121.6 31.4778C121.487 31.3514 121.24 31.2701 120.859 31.234C120.486 31.1888 119.915 31.1888 119.146 31.234C119.146 31.0172 119.146 30.7508 119.146 30.4347C119.154 30.1096 119.162 29.8342 119.17 29.6084C120.061 29.5632 120.628 29.4684 120.871 29.3239C121.114 29.1704 121.236 28.9401 121.236 28.633C121.236 28.3079 121.11 28.0686 120.859 27.915C120.608 27.7615 120.045 27.6938 119.17 27.7118C119.17 27.5583 119.174 27.3777 119.182 27.1699C119.198 26.9622 119.211 26.7184 119.219 26.4384C119.243 25.6798 119.446 25.1605 119.826 24.8805C120.207 24.5915 120.717 24.4154 121.357 24.3522C121.843 24.3071 122.329 24.2619 122.815 24.2167C123.301 24.1716 123.783 24.1355 124.261 24.1084C124.739 24.0722 125.205 24.0452 125.659 24.0271C126.12 24.009 126.566 24 126.995 24C127.643 24 128.105 24.1039 128.38 24.3116C128.656 24.5193 128.793 24.8489 128.793 25.3005C128.793 25.5895 128.753 25.8288 128.672 26.0185C128.591 26.1991 128.465 26.3346 128.295 26.4249C128.133 26.5062 127.927 26.5468 127.676 26.5468C127.651 26.5468 127.619 26.5468 127.578 26.5468C127.546 26.5468 127.51 26.5468 127.469 26.5468C127.429 26.5468 127.388 26.5468 127.348 26.5468C127.242 26.5378 127.137 26.5333 127.032 26.5333C126.934 26.5333 126.849 26.5287 126.776 26.5197C126.533 26.5016 126.274 26.4881 125.999 26.4791C125.731 26.47 125.468 26.461 125.209 26.452C125.152 26.452 125.096 26.452 125.039 26.452C124.982 26.4429 124.921 26.4384 124.857 26.4384C124.8 26.4384 124.743 26.4384 124.687 26.4384C124.63 26.4294 124.573 26.4249 124.516 26.4249C124.468 26.4249 124.419 26.4249 124.371 26.4249C124.265 26.4158 124.164 26.4113 124.067 26.4113C123.978 26.4113 123.893 26.4113 123.812 26.4113C123.52 26.4113 123.326 26.4836 123.228 26.6281C123.131 26.7726 123.099 27.0977 123.131 27.6034C123.18 28.344 123.241 29.0168 123.313 29.6219C123.386 30.227 123.471 30.8908 123.569 31.6133C123.617 31.9655 123.69 32.2048 123.787 32.3313C123.893 32.4577 124.071 32.5074 124.322 32.4803C124.678 32.4351 125.043 32.3855 125.416 32.3313C125.796 32.2681 126.12 32.2184 126.388 32.1823C126.704 32.1371 126.938 32.2319 127.092 32.4667C127.254 32.7016 127.335 32.977 127.335 33.2931C127.335 33.5911 127.258 33.8756 127.105 34.1466C126.951 34.4085 126.72 34.5484 126.412 34.5665C126.234 34.5755 126.047 34.5846 125.853 34.5936C125.659 34.6026 125.456 34.6117 125.245 34.6207C125.156 34.6297 125.067 34.6342 124.978 34.6342C124.897 34.6342 124.812 34.6388 124.723 34.6478C124.642 34.6478 124.557 34.6523 124.468 34.6613C124.387 34.6613 124.306 34.6613 124.225 34.6613C124.071 34.6704 123.917 34.6794 123.763 34.6884C123.617 34.6884 123.467 34.6929 123.313 34.702C123.265 34.702 123.212 34.702 123.156 34.702C123.107 34.702 123.054 34.7065 122.998 34.7155C122.949 34.7155 122.896 34.7155 122.84 34.7155C122.791 34.7155 122.742 34.72 122.694 34.7291C122.645 34.7291 122.593 34.7291 122.536 34.7291C122.487 34.7291 122.439 34.7336 122.39 34.7426C122.26 34.7516 122.131 34.7607 122.001 34.7697C121.88 34.7787 121.762 34.7832 121.649 34.7832C121.471 34.7923 121.325 34.869 121.211 35.0135C121.106 35.158 121.082 35.4154 121.139 35.7857C121.252 36.445 121.382 37.0998 121.527 37.75C121.673 38.3912 121.835 39.046 122.013 39.7143C122.111 40.0755 122.228 40.3103 122.366 40.4187C122.503 40.5181 122.694 40.5542 122.937 40.5271C123.755 40.4277 124.569 40.3194 125.379 40.202C126.197 40.0846 127.036 39.9852 127.894 39.9039C128.267 39.8678 128.542 39.9943 128.721 40.2833C128.907 40.5722 129 40.8883 129 41.2315C129 41.5386 128.923 41.8231 128.769 42.085C128.623 42.3469 128.397 42.4869 128.089 42.5049C126.841 42.5591 125.586 42.5817 124.322 42.5727C123.066 42.5636 121.811 42.5591 120.555 42.5591C119.996 42.5591 119.595 42.4101 119.352 42.1121C119.117 41.814 119 41.4031 119 40.8793ZM122.305 41.665L123.885 41.6921C123.917 42.7126 123.913 43.4713 123.872 43.968C123.84 44.4737 123.759 44.8079 123.629 44.9704C123.508 45.133 123.334 45.2143 123.107 45.2143C122.872 45.2143 122.694 45.1285 122.572 44.9569C122.459 44.7943 122.382 44.4602 122.341 43.9544C122.309 43.4487 122.297 42.6855 122.305 41.665ZM126.023 44.8079C125.991 44.3202 125.962 43.8235 125.938 43.3177C125.914 42.821 125.893 42.3243 125.877 41.8276C125.869 41.2586 125.922 40.8703 126.035 40.6626C126.157 40.4458 126.363 40.3374 126.655 40.3374C126.914 40.3374 127.104 40.4368 127.226 40.6355C127.356 40.8251 127.433 41.1502 127.457 41.6108C127.481 42.1256 127.501 42.6359 127.518 43.1416C127.534 43.6474 127.546 44.1576 127.554 44.6724C127.57 45.133 127.51 45.4672 127.372 45.6749C127.242 45.8916 127.06 46 126.825 46C126.582 46 126.396 45.9097 126.266 45.7291C126.145 45.5575 126.064 45.2504 126.023 44.8079ZM126.558 38.6847C126.128 38.6847 125.796 38.5538 125.561 38.2919C125.335 38.03 125.221 37.6552 125.221 37.1675C125.221 36.6798 125.331 36.3231 125.549 36.0973C125.776 35.8715 126.088 35.7586 126.485 35.7586C126.914 35.7586 127.246 35.8805 127.481 36.1244C127.724 36.3682 127.846 36.6888 127.846 37.0862C127.846 37.6281 127.724 38.03 127.481 38.2919C127.246 38.5538 126.938 38.6847 126.558 38.6847ZM124.978 24.9754C124.978 24.7947 125.055 24.6367 125.209 24.5012C125.363 24.3658 125.537 24.298 125.731 24.298C125.942 24.298 126.136 24.3251 126.315 24.3793C126.501 24.4245 126.598 24.5509 126.606 24.7586C126.623 24.8489 126.635 24.9438 126.643 25.0431C126.651 25.1334 126.655 25.2192 126.655 25.3005C126.655 25.4992 126.582 25.6708 126.436 25.8153C126.29 25.9598 126.112 26.032 125.902 26.032C125.707 26.032 125.517 25.9959 125.33 25.9236C125.152 25.8424 125.051 25.6888 125.027 25.4631C125.019 25.3818 125.006 25.3005 124.99 25.2192C124.982 25.1379 124.978 25.0566 124.978 24.9754ZM121.673 25.8695L121.454 27.6034C121.163 27.5583 120.936 27.477 120.774 27.3596C120.612 27.2332 120.531 27.0164 120.531 26.7094C120.531 26.33 120.632 26.0952 120.835 26.0049C121.045 25.9146 121.325 25.8695 121.673 25.8695Z" fill="#A50000"/>
<path d="M133.261 34C132.674 34 132.133 33.8445 131.639 33.5335C131.145 33.2166 130.747 32.7587 130.445 32.1598C130.148 31.5609 130 30.8266 130 29.9568C130 29.0525 130.167 28.3096 130.502 27.7279C130.843 27.1462 131.285 26.7142 131.828 26.432C132.372 26.144 132.954 26 133.574 26C134.288 26 134.9 26.1757 135.411 26.527C135.921 26.8783 136.314 27.342 136.588 27.9179C136.863 28.4881 137 29.1102 137 29.784C137 30.5384 136.904 31.1836 136.712 31.7192C136.525 32.2549 136.262 32.6927 135.921 33.0324C135.581 33.3665 135.183 33.6112 134.727 33.7667C134.277 33.9222 133.788 34 133.261 34ZM133.294 32.9806C133.849 32.9806 134.326 32.8769 134.727 32.6695C135.133 32.4622 135.444 32.1281 135.658 31.6674C135.872 31.2009 135.979 30.5788 135.979 29.8013C135.979 29.329 135.874 28.8855 135.666 28.4708C135.457 28.0504 135.172 27.7106 134.809 27.4514C134.453 27.1865 134.046 27.054 133.591 27.054C132.976 27.054 132.476 27.1807 132.092 27.4341C131.713 27.6875 131.436 28.0331 131.26 28.4708C131.09 28.9086 131.005 29.4039 131.005 29.9568C131.005 30.6076 131.109 31.1577 131.318 31.6069C131.532 32.0562 131.812 32.3989 132.158 32.635C132.504 32.8654 132.882 32.9806 133.294 32.9806ZM133.064 29.7667C133.113 29.7726 133.179 29.7812 133.261 29.7927C133.344 29.7985 133.426 29.8013 133.508 29.8013C133.744 29.8013 133.912 29.7667 134.011 29.6976C134.115 29.6227 134.167 29.496 134.167 29.3175C134.167 29.162 134.112 29.0554 134.002 28.9978C133.898 28.9345 133.744 28.9028 133.541 28.9028C133.481 28.9028 133.409 28.9028 133.327 28.9028C133.245 28.9028 133.173 28.9086 133.113 28.9201C133.003 28.9316 132.943 29.0122 132.932 29.162C132.926 29.2196 132.921 29.2944 132.915 29.3866C132.915 29.473 132.915 29.5479 132.915 29.6112C132.915 29.6918 132.965 29.7436 133.064 29.7667ZM132.52 31.8575C132.35 31.8575 132.229 31.8028 132.158 31.6933C132.086 31.5782 132.048 31.414 132.042 31.2009C132.037 30.838 132.034 30.4292 132.034 29.9741C132.034 29.5133 132.042 29.1274 132.059 28.8164C132.07 28.6091 132.13 28.4593 132.24 28.3672C132.35 28.2693 132.493 28.1944 132.668 28.1425C132.8 28.0965 132.934 28.0677 133.072 28.0562C133.214 28.0446 133.376 28.0389 133.558 28.0389C134.063 28.0389 134.436 28.1483 134.678 28.3672C134.919 28.586 135.04 28.8913 135.04 29.2829C135.04 29.5652 134.996 29.7955 134.908 29.9741C134.826 30.1527 134.711 30.2851 134.562 30.3715C134.48 30.4233 134.453 30.4866 134.48 30.5616C134.54 30.6998 134.598 30.8438 134.653 30.9935C134.708 31.1376 134.749 31.2641 134.776 31.3736C134.804 31.4773 134.801 31.5752 134.768 31.6674C134.735 31.7538 134.656 31.8229 134.529 31.8747C134.392 31.9266 134.271 31.9294 134.167 31.8834C134.063 31.8374 133.986 31.7596 133.936 31.6501C133.882 31.5004 133.821 31.3419 133.755 31.1749C133.695 31.008 133.64 30.8438 133.591 30.6825C133.585 30.6538 133.571 30.6307 133.549 30.6134C133.533 30.5961 133.503 30.5847 133.459 30.5788C133.409 30.5674 133.354 30.5616 133.294 30.5616C133.239 30.5616 133.19 30.5616 133.146 30.5616C133.025 30.5616 132.965 30.6134 132.965 30.7171C132.959 30.8438 132.959 30.9648 132.965 31.0799C132.976 31.195 132.976 31.3218 132.965 31.46C132.954 31.5868 132.915 31.6847 132.849 31.7538C132.789 31.8229 132.679 31.8575 132.52 31.8575Z" fill="#A50000"/>
<path d="M104.014 35.99C103.183 35.99 102.465 35.8449 101.86 35.5548C101.264 35.2558 100.772 34.8821 100.385 34.4337C100.006 33.9765 99.7234 33.5104 99.5379 33.0356C99.3605 32.5608 99.2718 32.1476 99.2718 31.7959C99.2718 31.4881 99.3323 31.2727 99.4533 31.1496C99.5823 31.0177 99.7557 30.9518 99.9734 30.9518C100.191 30.9518 100.356 31.0221 100.469 31.1628C100.59 31.3035 100.691 31.5057 100.772 31.7695C100.925 32.2443 101.139 32.6707 101.413 33.0488C101.695 33.4269 102.05 33.7259 102.477 33.9457C102.913 34.1655 103.433 34.2754 104.038 34.2754C104.804 34.2754 105.425 34.0688 105.901 33.6555C106.384 33.2335 106.626 32.6751 106.626 31.9805C106.626 31.3914 106.485 30.921 106.203 30.5693C105.921 30.2088 105.546 29.9142 105.078 29.6856C104.618 29.4482 104.11 29.2328 103.554 29.0393C103.005 28.8459 102.453 28.6217 101.897 28.3667C101.348 28.1117 100.84 27.782 100.373 27.3775C99.9129 26.973 99.542 26.4455 99.2597 25.7948C98.9775 25.1441 98.8364 24.322 98.8364 23.3284C98.8364 22.1766 99.0501 21.205 99.4775 20.4136C99.9049 19.6223 100.514 19.0244 101.304 18.6199C102.094 18.2066 103.03 18 104.11 18C105.07 18 105.88 18.1275 106.542 18.3825C107.203 18.6375 107.731 18.9628 108.126 19.3585C108.529 19.7454 108.82 20.1454 108.997 20.5587C109.175 20.972 109.263 21.3325 109.263 21.6402C109.263 22.0183 109.17 22.2953 108.985 22.4711C108.8 22.6382 108.586 22.7217 108.344 22.7217C108.094 22.7217 107.88 22.625 107.703 22.4316C107.525 22.2293 107.34 22.0007 107.146 21.7457C106.961 21.4907 106.719 21.2665 106.421 21.0731C106.122 20.8708 105.723 20.7697 105.223 20.7697C104.634 20.7697 104.171 20.95 103.832 21.3105C103.501 21.671 103.336 22.1502 103.336 22.7481C103.336 23.2757 103.429 23.7329 103.614 24.1198C103.808 24.5066 104.062 24.8584 104.376 25.1749C104.699 25.4826 105.046 25.7772 105.417 26.0586C105.796 26.3312 106.171 26.6213 106.542 26.9291C106.921 27.2368 107.267 27.5885 107.582 27.9842C107.904 28.3711 108.158 28.8239 108.344 29.3427C108.537 29.8614 108.634 30.4769 108.634 31.1892C108.634 31.919 108.529 32.5784 108.32 33.1675C108.118 33.7566 107.82 34.2622 107.425 34.6843C107.029 35.1063 106.546 35.4317 105.973 35.6603C105.401 35.8801 104.747 35.99 104.014 35.99ZM102.538 27.1797C103.135 27.1797 103.433 26.9071 103.433 26.3619C103.433 26.0718 103.368 25.8519 103.239 25.7025C103.11 25.5442 102.925 25.4651 102.683 25.4651C102.385 25.4651 102.171 25.5398 102.042 25.6893C101.921 25.8388 101.86 26.0542 101.86 26.3355C101.86 26.5817 101.925 26.784 102.054 26.9422C102.183 27.1005 102.344 27.1797 102.538 27.1797ZM101.207 25.043C101.522 25.043 101.756 24.9507 101.909 24.766C102.07 24.5726 102.151 24.3396 102.151 24.067C102.151 23.7241 102.074 23.4735 101.921 23.3152C101.768 23.1482 101.53 23.0646 101.207 23.0646C100.909 23.0646 100.687 23.1438 100.542 23.302C100.405 23.4515 100.336 23.7065 100.336 24.067C100.336 24.3836 100.417 24.6254 100.578 24.7924C100.748 24.9595 100.957 25.043 101.207 25.043ZM101.304 22.1942C101.61 22.1942 101.836 22.1194 101.981 21.9699C102.127 21.8117 102.199 21.5875 102.199 21.2973C102.199 20.9895 102.135 20.7697 102.006 20.6378C101.877 20.4971 101.643 20.4268 101.304 20.4268C101.11 20.4268 100.941 20.4971 100.796 20.6378C100.651 20.7697 100.578 20.9895 100.578 21.2973C100.578 21.5611 100.643 21.7765 100.772 21.9436C100.909 22.1106 101.086 22.1942 101.304 22.1942ZM108.392 22.5107C108.199 22.5107 108.046 22.4535 107.933 22.3392C107.82 22.2161 107.763 22.0359 107.763 21.7985C107.763 21.5699 107.828 21.3984 107.957 21.2841C108.094 21.1698 108.263 21.1126 108.465 21.1126C108.65 21.1126 108.791 21.183 108.888 21.3237C108.993 21.4556 109.046 21.6226 109.046 21.8249C109.046 22.0359 108.989 22.2029 108.876 22.326C108.763 22.4491 108.602 22.5107 108.392 22.5107ZM106.868 34.0644L107.715 33.0884C108.465 33.6863 109.013 34.1611 109.36 34.5128C109.707 34.8557 109.908 35.1283 109.965 35.3306C110.029 35.524 110.005 35.6998 109.892 35.8581C109.755 36.0516 109.582 36.1351 109.372 36.1087C109.171 36.0735 108.872 35.8977 108.477 35.5811C108.09 35.2558 107.554 34.7502 106.868 34.0644ZM105.005 35.1459L106.409 34.4601C106.909 35.6207 107.263 36.5088 107.473 37.1243C107.683 37.7486 107.771 38.1926 107.739 38.4564C107.715 38.7202 107.594 38.9004 107.376 38.9971C107.142 39.1026 106.925 39.0631 106.723 38.8784C106.53 38.7026 106.3 38.3201 106.034 37.731C105.776 37.1419 105.433 36.2802 105.005 35.1459ZM102.828 35.4361L104.231 35.4888C104.312 36.7286 104.352 37.6694 104.352 38.3113C104.36 38.9532 104.308 39.3884 104.195 39.617C104.082 39.8544 103.884 39.9819 103.602 39.9995C103.368 40.0083 103.183 39.8984 103.046 39.6698C102.909 39.45 102.82 39.0103 102.78 38.3509C102.747 37.7002 102.764 36.7286 102.828 35.4361ZM100.989 34.9349C101.03 34.8821 101.07 34.8294 101.11 34.7766C101.159 34.7238 101.199 34.6799 101.231 34.6447C101.368 34.4952 101.51 34.4249 101.655 34.4337C101.8 34.4425 101.925 34.4952 102.03 34.592C102.167 34.6799 102.26 34.8118 102.308 34.9876C102.364 35.1547 102.344 35.3042 102.247 35.4361C102.223 35.4712 102.195 35.5152 102.163 35.568C102.131 35.6119 102.102 35.6559 102.078 35.6998C101.562 36.4384 101.151 36.9528 100.844 37.243C100.538 37.5419 100.296 37.7002 100.119 37.7178C99.9492 37.7354 99.8121 37.6958 99.7073 37.5991C99.6105 37.5024 99.5541 37.3661 99.5379 37.1902C99.5299 37.0144 99.6266 36.7506 99.8282 36.3989C100.038 36.0472 100.425 35.5592 100.989 34.9349ZM100.554 32.4817L100.917 33.7215C100.248 34.0732 99.7194 34.3326 99.3323 34.4996C98.9533 34.6579 98.667 34.7238 98.4735 34.6975C98.288 34.6711 98.1509 34.548 98.0622 34.3282C97.9654 34.0644 97.9816 33.8402 98.1106 33.6555C98.2477 33.4621 98.5138 33.2774 98.9089 33.1016C99.3121 32.9257 99.8605 32.7191 100.554 32.4817Z" fill="#A50000"/>
<path d="M39.0006 34.0766C39.0085 33.4528 39.0243 32.7164 39.0481 31.8673C39.0797 31.0096 39.1154 30.1042 39.155 29.1512C39.1945 28.1895 39.2381 27.2408 39.2856 26.3051C39.2856 26.1578 39.2896 26.0192 39.2975 25.8892C39.3133 25.7506 39.3212 25.6119 39.3212 25.4733C39.3371 25.326 39.345 25.1874 39.345 25.0575C39.345 24.9188 39.3489 24.7802 39.3568 24.6416C39.3727 24.3817 39.3846 24.1347 39.3925 23.9008C39.4083 23.6582 39.4202 23.42 39.4281 23.186C40.3544 23.1601 41.055 23.1037 41.5301 23.0171C42.013 22.9305 42.3377 22.8048 42.5039 22.6402C42.6702 22.4756 42.7454 22.259 42.7296 21.9904C42.7058 21.6352 42.4723 21.4186 42.0289 21.3406C41.5934 21.2627 40.7581 21.2973 39.5231 21.4446C39.5389 21.2453 39.5508 21.0547 39.5587 20.8728C39.5746 20.6822 39.5865 20.4916 39.5944 20.301C39.6815 19.218 39.9269 18.4512 40.3307 18.0007C40.7423 17.5415 41.3005 17.3119 42.0051 17.3119C42.6702 17.3119 43.2086 17.5025 43.6203 17.8837C44.0399 18.2563 44.4635 18.8974 44.891 19.8071C45.1998 20.4569 45.5363 21.2713 45.9005 22.2503C46.2647 23.2294 46.6408 24.282 47.0287 25.4083C47.4246 26.526 47.8165 27.635 48.2045 28.7353C48.5924 29.8269 48.9606 30.8103 49.3089 31.6854C49.396 31.9106 49.5148 32.0492 49.6652 32.1012C49.8236 32.1445 49.9621 32.1099 50.0809 31.9973C50.2076 31.8846 50.2669 31.7027 50.259 31.4514C50.2274 30.1259 50.1917 28.705 50.1521 27.1888C50.1126 25.6639 50.0769 24.1694 50.0453 22.7052C50.0215 21.2323 49.9978 19.9111 49.974 18.7414C49.9582 18.1783 50.0215 17.7494 50.164 17.4549C50.3065 17.1516 50.5916 17 51.0191 17C51.4625 17 51.7475 17.1516 51.8742 17.4549C52.0009 17.7494 52.0642 18.161 52.0642 18.6895C52.0642 19.9804 52.0642 21.4143 52.0642 22.9911C52.0642 24.5593 52.0563 26.1621 52.0404 27.7996C52.0325 29.4371 52.0088 31.0009 51.9692 32.4911C51.9454 33.3575 51.7237 33.9683 51.3041 34.3235C50.8924 34.6787 50.4411 34.8564 49.9502 34.8564C49.6177 34.8564 49.2773 34.7827 48.9289 34.6354C48.5805 34.4881 48.2243 34.2066 47.86 33.7907C47.1871 32.985 46.5339 32.1229 45.9005 31.2045C45.2671 30.2775 44.6535 29.3678 44.0597 28.4754C43.4738 27.5743 42.8998 26.7642 42.3377 26.0451C42.2031 25.8719 42.1001 25.7592 42.0289 25.7073C41.9655 25.6553 41.8903 25.6293 41.8032 25.6293C41.6053 25.6293 41.4549 25.7072 41.3519 25.8632C41.2569 26.0192 41.2094 26.2271 41.2094 26.487C41.2094 27.3187 41.2292 28.1548 41.2688 28.9952C41.3163 29.8356 41.3559 30.6803 41.3876 31.5294C41.4272 32.3785 41.4469 33.2275 41.4469 34.0766C41.4469 34.6917 41.3559 35.1683 41.1738 35.5062C40.9917 35.8354 40.6632 36 40.1882 36C39.7052 36 39.3846 35.8137 39.2262 35.4412C39.0679 35.06 38.9926 34.6051 39.0006 34.0766ZM50.1403 19.3912C50.2511 19.3999 50.354 19.4129 50.449 19.4302C50.552 19.4389 50.6549 19.4519 50.7578 19.4692C50.9003 19.4952 51.0191 19.5472 51.1141 19.6252C51.217 19.7031 51.2922 19.8071 51.3398 19.9371C51.3952 20.0584 51.4229 20.197 51.4229 20.3529C51.4229 20.5002 51.3991 20.6345 51.3516 20.7558C51.3041 20.8684 51.2249 20.9637 51.1141 21.0417C51.0112 21.111 50.8687 21.15 50.6866 21.1587C50.5916 21.1587 50.4965 21.1587 50.4015 21.1587C50.3065 21.1587 50.2115 21.1587 50.1165 21.1587C49.3564 21.124 48.7824 21.0677 48.3945 20.9897C48.0065 20.9118 47.7452 20.8035 47.6107 20.6648C47.4761 20.5262 47.4088 20.3443 47.4088 20.119C47.4088 19.8678 47.4761 19.6772 47.6107 19.5472C47.7532 19.4086 48.0184 19.3263 48.4064 19.3003C48.8022 19.2656 49.3802 19.2959 50.1403 19.3912ZM50.9241 21.3666C50.9716 21.3666 51.0191 21.3666 51.0666 21.3666C51.1141 21.3666 51.1616 21.3666 51.2091 21.3666C51.32 21.3666 51.4506 21.4489 51.601 21.6135C51.7515 21.7695 51.8267 21.9818 51.8267 22.2503C51.8267 22.5103 51.7594 22.7139 51.6248 22.8611C51.4981 23.0084 51.3793 23.0821 51.2685 23.0821C51.1972 23.0821 51.1379 23.0821 51.0904 23.0821C51.0508 23.0821 50.9914 23.0821 50.9122 23.0821C50.7222 23.0821 50.5797 23.0084 50.4847 22.8611C50.3976 22.7052 50.354 22.4843 50.354 22.1984C50.354 21.8951 50.4055 21.6829 50.5084 21.5616C50.6114 21.4316 50.7499 21.3666 50.9241 21.3666ZM51.4466 23.0561C51.5575 23.0388 51.6485 23.0258 51.7198 23.0171C51.799 23.0084 51.8742 23.0041 51.9454 23.0041C52.5551 22.9521 53.0064 22.9521 53.2993 23.0041C53.5923 23.0561 53.7823 23.1514 53.8694 23.29C53.9565 23.4286 54 23.6019 54 23.8098C54 24.0438 53.9565 24.2387 53.8694 24.3947C53.7902 24.5506 53.6041 24.6632 53.3112 24.7326C53.0262 24.8019 52.5867 24.8235 51.9929 24.7975C51.8979 24.7975 51.795 24.7975 51.6842 24.7975C51.5812 24.7889 51.4862 24.7715 51.3991 24.7456C51.1774 24.6936 51.0191 24.5853 50.9241 24.4207C50.8291 24.2474 50.7816 24.0524 50.7816 23.8358C50.7816 23.6192 50.841 23.4416 50.9597 23.303C51.0864 23.1644 51.2487 23.0821 51.4466 23.0561ZM40.77 31.2435C41.1659 31.2435 41.5776 31.2522 42.0051 31.2695C42.4327 31.2782 42.8721 31.2955 43.3234 31.3215C43.6797 31.3388 43.9607 31.4254 44.1666 31.5814C44.3803 31.7373 44.4872 31.9799 44.4872 32.3092C44.4872 32.6817 44.3764 32.9416 44.1547 33.0889C43.9409 33.2362 43.6242 33.2969 43.2046 33.2709C42.7216 33.2449 42.2466 33.2145 41.7795 33.1799C41.3124 33.1366 40.9046 33.0976 40.5563 33.0629C40.1209 33.0109 39.8477 32.9026 39.7369 32.738C39.626 32.5734 39.5706 32.3698 39.5706 32.1272C39.5706 31.8413 39.6498 31.6247 39.8081 31.4774C39.9665 31.3215 40.2871 31.2435 40.77 31.2435ZM43.2521 33.0629C43.0859 33.0629 42.9394 32.9936 42.8127 32.855C42.6939 32.7077 42.6346 32.5171 42.6346 32.2832C42.6346 32.0492 42.7019 31.8673 42.8365 31.7373C42.971 31.5987 43.1729 31.5294 43.4421 31.5294C43.5846 31.5294 43.7192 31.5944 43.8459 31.7243C43.9726 31.8456 44.0359 32.0233 44.0359 32.2572C44.0359 32.4998 43.9686 32.6947 43.834 32.842C43.7074 32.9893 43.5134 33.0629 43.2521 33.0629ZM44.606 26.0711C44.9385 26.0711 45.1919 25.9498 45.3661 25.7073C45.5402 25.4647 45.6273 25.1441 45.6273 24.7456C45.6273 24.4596 45.5244 24.2041 45.3186 23.9788C45.1206 23.7449 44.8356 23.6279 44.4635 23.6279C44.1468 23.6279 43.8895 23.7492 43.6915 23.9918C43.4936 24.2257 43.3946 24.5636 43.3946 25.0055C43.3946 25.326 43.4936 25.586 43.6915 25.7852C43.8974 25.9758 44.2022 26.0711 44.606 26.0711Z" fill="#A50000"/>
<path d="M30.6024 7.22015C20.2275 15.0554 13.9911 33.3192 1.0638 31.9361C-7.4522 31.0249 -13.7994 23.6609 -13.4444 15.1037L-13.1815 8.76673C-12.6109 -4.98639 -0.162337 -15.1996 13.2516 -12.111C32.4242 -7.69638 52.7415 -1.05534 35.5174 4.72018C33.5484 5.38041 31.9226 6.22306 30.6024 7.22015Z" fill="#8F0000"/>
<path d="M17.731 36.6208C15.9423 23.3785 26.9279 5.71933 17.5406 -3.79052C11.399 -10.0123 1.47841 -10.3867 -5.11466 -4.64555L-9.56473 -0.770513C-19.831 8.16916 -20.0575 24.0679 -9.4753 32.6313C6.53775 45.5895 25.6498 58.6522 18.8586 40.885C18.2799 39.3711 17.9108 37.9516 17.731 36.6208Z" fill="#8F0000"/>
</svg>
